<?xml version="1.0" standalone="no"?>
<!DOCTYPE svg PUBLIC "-//W3C//DTD SVG 1.1//EN" "http://www.w3.org/Graphics/SVG/1.1/DTD/svg11.dtd">
<svg xmlns="http://www.w3.org/2000/svg">
<metadata>Copyright (C) 2019 by original authors @ fontello.com</metadata>
<defs>
<font id="fontello" horiz-adv-x="1000" >
<font-face font-family="fontello" font-weight="400" font-stretch="normal" units-per-em="1000" ascent="850" descent="-150" />
<missing-glyph horiz-adv-x="1000" />
<glyph glyph-name="user" unicode="&#xe800;" d="M714 69q0-60-35-104t-84-44h-476q-49 0-84 44t-35 104q0 48 5 90t17 85 33 73 52 50 76 19q73-72 174-72t175 72q42 0 75-19t52-50 33-73 18-85 4-90z m-143 495q0-88-62-151t-152-63-151 63-63 151 63 152 151 63 152-63 62-152z" horiz-adv-x="714.3" />

<glyph glyph-name="icon1" unicode="&#xe801;" d="M682-150h-682v98a82 82 0 0 0 56 79l3 0c36 10 64 20 80 26 58 23 73 39 77 46 0 1 0 1 1 1l0 31c-39 46-69 107-69 170a257 257 0 0 0 2 36 190 190 0 0 0-33 13s40 148 96 182a252 252 0 0 0 131 37c57 0 102-19 122-37 105-95 69-231 69-231 0-63-30-124-69-170l0-31c0 0 0 0 0-1 4-7 19-23 77-46a826 826 0 0 1 81-26l2 0a85 85 0 0 0 18-9c5 2 9 3 13 5-64 14-85 34-89 39l-5 6-1 7c-1 9-21 227 83 342 41 46 97 70 164 70 68 0 124-24 166-70 104-115 85-333 84-342l-1-7-5-5c-3-4-16-17-52-30a338 338 0 0 0-37-10c4-2 8-4 13-5a681 681 0 0 1 67-22l1-1a68 68 0 0 0 47-64v-81z m67 188c0-1 0-2-1-3l0 0v0c-10-20-33-37-73-54a82 82 0 0 0 7-33v-53h364v36a22 22 0 0 1-14 21l-1 0a729 729 0 0 0-70 23c-50 19-77 38-88 60l0 0 0 1c-1 1-1 1-2 2l-1 4c-21-15-42-23-60-23s-38 8-59 23z m-345-36l20-107h213v53a37 37 0 0 1-25 35l0 0a887 887 0 0 0-85 28c-52 20-82 39-97 60z m-99-107h72l-17 91h-38z m-150 116c-17-7-45-17-84-28l-1 0a37 37 0 0 1-24-35v-53h213l20 107-27 69c-14-21-45-40-97-60z m161 21h51l11 30h-73z m363 355c-80-89-75-257-72-298 6-4 16-10 35-15a399 399 0 0 1 66-14l0 22c-32 37-57 88-57 140 0 103 71 172 159 172s160-69 160-172c0-52-25-102-57-140l0-22a387 387 0 0 1 66 14c18 6 29 11 35 15 2 41 7 210-73 298-34 36-76 54-132 54s-97-18-130-54z m18-156c-1-3-1-6-1-9 0-36 17-77 46-111 28-32 57-47 68-47 12 0 41 15 68 47 29 34 46 75 46 111 0 5 0 10 0 15a353 353 0 0 0-127 33 238 238 0 0 0-100-39z m-504 70c0-46 22-97 59-141 23-28 47-44 65-53h49c18 9 41 25 65 53 37 44 58 95 58 141a215 215 0 0 1-1 23 58 58 0 0 0-15 14c-15 22-20 39-41 39-13 0-33-7-66-22-49-23-95-31-133-31a288 288 0 0 0-38 3 215 215 0 0 1-2-26z m537 14a116 116 0 0 1-23-36 200 200 0 0 1 108 69c-1 0-3 0-5 0a110 110 0 0 1-80-33z m106-12a317 317 0 0 1 76-19 116 116 0 0 1-22 31 106 106 0 0 1-27 21 242 242 0 0 0-27-33z m-600 190c-3-2-23-16-50-82-5-12-9-23-13-34a237 237 0 0 1 60-7c38 0 77 9 114 26 39 19 64 26 85 26a72 72 0 0 0 51-19 87 87 0 0 0 9-11c-6 42-26 78-57 106-9 9-43 26-91 26a206 206 0 0 1-108-31z m207 270a87 87 0 0 0 148 61 87 87 0 0 0 149-61c0-99-149-185-149-185s-148 86-148 185z m45 0c0-26 21-60 59-95a441 441 0 0 1 44-36 444 444 0 0 1 45 36c38 35 58 69 58 95a41 41 0 0 1-70 29l-33-33-32 33a41 41 0 0 1-71-29z" horiz-adv-x="1092" />

<glyph glyph-name="icon2" unicode="&#xe802;" d="M425-150h-119l0 0-1 0h-52a16 16 0 0 0 0 32h32l-82 292-76-32c0 0-1 0-1 0-4-1-94-34-94-148v-112h91v118a16 16 0 1 0 32 0v-118h48a16 16 0 0 0 0-32h-187a16 16 0 0 0-16 16v128c0 72 31 116 58 141a177 177 0 0 0 57 37l91 38a16 16 0 0 0 3 1l66 43v26a166 166 0 0 0-90 126 76 76 0 0 0-49 127v96a221 221 0 0 0 221 221h17a221 221 0 0 0 221-221v-97a76 76 0 0 0-49-126 166 166 0 0 0-91-126v-27a16 16 0 0 0 2-1l64-42 90-38a160 160 0 0 0 31-16l0 0c32-21 85-69 85-162v-128a16 16 0 0 0-16-16h-286l0 0z m179 150v-118h91v112c0 74-38 115-70 135l0 0a127 127 0 0 1-24 13c-1 0-1 0-1 0l-72 30-82-290h126v118a16 16 0 1 0 32 0z m-280-118h82l-22 140h-37z m90 154l15-97 32 113a16 16 0 0 0-17 1l-18 14z m-113-96l16 95-14 32-19-14a16 16 0 0 0-13-2c0 0-1 0-1 0z m29 147l14-34v0h42l13 33-35 26z m-97 101l48-98 59 44-60 59a16 16 0 0 0-4 16 16 16 0 0 0-1 5v2z m222 26a16 16 0 0 0 0-2 16 16 0 0 0-4-13l-63-65 60-44 47 98-40 27z m-148 32v-32a16 16 0 0 0 0-3l58-56 59 61v52a165 165 0 0 0-42-5h-33a165 165 0 0 0-42 5z m-92 295v-113a134 134 0 0 1 134-134h33a134 134 0 0 1 134 134v116c-47 16-71 57-83 85-70-72-177-86-218-88z m332-103a44 44 0 0 1 0 86z m-400 43a44 44 0 0 1 36-43v86a44 44 0 0 1-36-43z m295 196a16 16 0 0 0 12-12c0-1 19-79 81-93 0 0 0 0 1 0 0-1 0-1 1-1 0 0 0 0 0 0 0 0 1 0 1 0 0 0 0 0 1-1s0 0 0 0 1 0 1 0 0-1 1-1c0 0 0 0 0 0 0 0 1-1 1-1 0 0 0 0 0 0 1 0 1-1 1-1s0 0 0 0 1-1 1-1 0 0 0 0c1-1 1-1 1-1 0 0 0-1 0-1 0 0 1 0 1-1 0 0 0 0 0 0 0 0 0-1 0-1 0 0 0 0 1-1 0 0 0 0 0 0 0-1 0-1 0-1s0-1 0-1c0 0 0 0 0-1 0 0 0 0 0 0 0-1 0-1 0-1 0 0 0-1 0-1a75 75 0 0 0 17-3v76a190 190 0 0 1-190 189h-17a190 190 0 0 1-189-189v-76a75 75 0 0 0 15 3c0 1 0 1 0 1s0 1 0 1c0 0 0 0 0 1 0 0 0 0 1 0 0 1 0 1 0 1 0 1 0 1 0 1 0 0 0 0 0 1 0 0 0 0 0 0 1 1 1 1 1 1 0 0 0 1 0 1s0 0 1 0 0 1 0 1 0 0 0 1 1 0 1 0 0 1 0 1 1 0 1 0c0 1 0 1 0 1 1 0 1 0 1 0 0 1 0 1 1 1 0 0 0 0 0 0 0 0 1 1 1 1 0 0 0 0 1 0 0 0 0 0 0 0 0 1 1 1 1 1 0 0 0 0 1 0s0 0 0 0 1 1 1 1c0 0 1 0 1 0 0 0 1 0 1 0 0 0 0 0 0 0a16 16 0 0 0 2 0h0c3 0 156 1 227 99a16 16 0 0 0 16 6z m-86-263a16 16 0 0 0-16 16v52a16 16 0 1 0 32 0v-36h12a16 16 0 0 0 0-32z" horiz-adv-x="727" />

<glyph glyph-name="mail" unicode="&#xe803;" d="M580 306l258-267-789 0 259 264 135-127z m-517 355l760 0-380-362z m566-309l257 242 0-508z m-629-266l0 508 259-243z" horiz-adv-x="886" />

<glyph glyph-name="icon3" unicode="&#xe804;" d="M422-150h-119l0 0 0 0h-52a16 16 0 0 0 0 32h31l-71 253 0 0-10 36-75-31c0 0-1 0-1 0-4-2-93-34-93-147v-111h90v116a16 16 0 1 0 31 0v-116h53a16 16 0 0 0 0-32h-190a16 16 0 0 0-16 16v127c0 71 31 115 57 140a176 176 0 0 0 57 36l91 38a16 16 0 0 0 2 1l66 16v53c-1 0-1 0-2 1a16 16 0 0 0-5-2c-40-7-77-17-106-30 0 0 0 0-1 0 0-1 0-1-1-1a16 16 0 0 0-1 0c-1 0-1 0-1 0a15 15 0 0 0-2-1c0 0 0 0 0 0a16 16 0 0 0-3 1l0 0a16 16 0 0 0-2 0c0 0 0 0 0 0a16 16 0 0 0-6 3c0 0 0 0 0 0a16 16 0 0 0-1 2c0 0 0 0 0 0s-1 0-1 0c-53 67-82 153-82 244 0 196 136 356 304 356 68 0 136-28 189-78l0 0c72-68 114-169 114-278 0-89-28-174-79-240a16 16 0 0 0-2-2 16 16 0 0 0-20-6c-29 13-65 23-104 29a16 16 0 0 0-7 3c0-1-1-1-2-2v-53l62-15a16 16 0 0 0 2-1l90-38a176 176 0 0 0 58-36c26-25 57-69 57-140v-127a16 16 0 0 0-16-16h-283l0 0z m177 148v-116h90v111c0 113-90 145-93 147-1 0-1 0-1 0l-72 30-80-288h124v116a16 16 0 1 0 32 0z m-284-116h95l63 226a264 264 0 0 0-169-18 283 283 0 0 0-52 18z m-10 329a16 16 0 0 0-13-15l-61-15 9-32a244 244 0 0 1 73-28c59-13 117-4 172 29l9 30-62 16a16 16 0 0 0-12 15v54a164 164 0 0 0-41-6h-33a164 164 0 0 0-41 6z m59 448a16 16 0 0 0 11-6c1-1 48-65 156-87a16 16 0 0 0 12-15 75 75 0 0 0-1-149 165 165 0 0 0-53-100 444 444 0 0 0 77-22c44 59 68 135 68 214 0 100-38 193-104 255-48 45-106 69-167 69-150 0-272-145-272-324 0-79 24-155 68-214a444 444 0 0 0 77 22 165 165 0 0 0-53 100 75 75 0 0 0-1 149 16 16 0 0 0 12 15c1 0 96 26 157 89a16 16 0 0 0 12 4q0 0 1 0z m-151-120v-115a133 133 0 0 1 133-133h33a133 133 0 0 1 133 133v114c-82 20-130 61-151 83-53-49-121-74-148-82z m-67-63a44 44 0 0 1 36-42v85a44 44 0 0 1-36-43z m397-42a43 43 0 0 1 0 85z m-183-33a16 16 0 0 0-16 16v51a16 16 0 1 0 31 0v-35h11a16 16 0 0 0 0-32z" horiz-adv-x="721" />

<glyph glyph-name="icon5" unicode="&#xe805;" d="M0 147v407c0 163 133 296 297 296s296-133 296-296v-407a295 295 0 0 0-17-100 14 14 0 0 0-1-3 296 296 0 0 0-37-70 15 15 0 0 0-3-3c0 0 0 0 0 0a296 296 0 0 0-238-121c-164 0-297 133-297 297z m29 0c0-148 120-268 268-268a266 266 0 0 1 106 22c-22 11-45 22-69 34-78 36-159 75-223 125-36 28-63 58-82 90z m0 111c0-147 169-227 317-297 32-15 61-29 89-43a269 269 0 0 1 69 61c-40 33-103 63-170 94-78 37-159 75-223 125-36 29-63 59-82 91z m0 139c0-147 169-227 317-297 68-32 133-62 176-97a266 266 0 0 1 25 50c-3 62-105 110-213 161-78 37-159 75-223 125-36 29-63 59-82 91z m438-217c42-24 75-48 93-77a268 268 0 0 1 4 44v136c-21-37-53-71-97-103z m-137 69q8-4 16-8c33-15 64-30 93-45 84 59 124 120 124 193a15 15 0 0 0 1 5h0v38c-46-80-140-136-234-183z m-301 305v-16c0-131 133-208 267-273 66 32 133 67 183 112 56 49 84 101 84 161a15 15 0 0 0 1 6v10c0 147-120 267-267 267s-268-120-268-267z m91-62a62 62 0 0 0 0 123 188 188 0 0 0 166 125 51 51 0 0 0 11 0 187 187 0 0 0 176-125 62 62 0 0 0 0-123 187 187 0 0 0-353 0z m25 19a157 157 0 0 1 303 0 15 15 0 0 0 16 11l1 0a29 29 0 0 1 4-1 32 32 0 0 1 0 65 29 29 0 0 1-4-1l-1 0a15 15 0 0 0-16 11 158 158 0 0 1-151 115c-3 0-5 0-8 0a20 20 0 0 1-12-8c-2-2-5-8-2-13 4-8 18-12 37-12a15 15 0 1 0 0-30c-18 0-50 4-63 28a40 40 0 0 0-4 27 158 158 0 0 1-100-107 15 15 0 0 0-16-11l-1 0a29 29 0 0 1-4 1 32 32 0 1 1 0-65 28 28 0 0 1 4 1l1 0a15 15 0 0 0 2 0 15 15 0 0 0 14-11z m94-46a15 15 0 1 0 21 21c5-5 18-12 37-12s31 7 36 12a15 15 0 1 0 21-21c-13-12-34-20-57-20s-45 8-58 20z m121 73v16a15 15 0 0 0 29 0v-16a15 15 0 0 0-29 0z m-156 0v16a15 15 0 0 0 29 0v-16a15 15 0 0 0-29 0z" horiz-adv-x="593" />

<glyph glyph-name="icon6" unicode="&#xe806;" d="M660 190v104l-44-17 0 0-1 2a113 113 0 0 1-75 50l-105 19v8a161 161 0 0 1 77 109 65 65 0 0 1 51 63v159a101 101 0 0 1-72 97l-8 8a198 198 0 0 1-338-140v-124a65 65 0 0 1 51-63 161 161 0 0 1 78-109v-8l-106-19a113 113 0 0 1-75-50l-1-3-44 18v-104a48 48 0 0 1-48-49v-64a48 48 0 0 1 48-49v-59l306-119 306 119v59a48 48 0 0 1 48 49v64a48 48 0 0 1-48 49z m-195 120l70-13a81 81 0 0 0 50-32l-155-61z m-158 32a160 160 0 0 1 94 0l-47-36z m23-58l-33-32-21 64 10 1z m93 33l10-1-21-64-33 32z m92 183v56a32 32 0 0 0 0-56z m-322 0a32 32 0 0 0 0 56z m0 108v-18a64 64 0 0 1-16-7v69a166 166 0 0 0 284 117l14-14 4-1a69 69 0 0 0 52-67v-104a63 63 0 0 1-16 7v18h-51a140 140 0 0 0-111 56l-13 17-32-32a138 138 0 0 0-99-41z m32-112v81a170 170 0 0 1 106 49l6 7a172 172 0 0 1 127-57h19v-80a129 129 0 1 0-258 0z m-51-199l70 13 35-106-156 61a81 81 0 0 0 51 32z m-142-220v64a16 16 0 0 0 16 16 48 48 0 0 0 0-96 16 16 0 0 0-16 16z m306-186l-257 100v44a80 80 0 0 1 0 148v64l257-101z m-48 308l64 64 64-64-64-24z m338-208l-258-100v255l258 101v-64a80 80 0 0 1 0-148z m48 86a16 16 0 0 0-16-16 48 48 0 0 0 0 96 16 16 0 0 0 16-16z" horiz-adv-x="708" />

<glyph glyph-name="icon8" unicode="&#xe807;" d="M1036-150a22 22 0 0 0-18 12l-48 102-49-102a22 22 0 0 0-18-12c-1 0-1 0-1 0a21 21 0 0 0-19 10l-28 46-50-8a22 22 0 0 0-22 30l26 57h-759a50 50 0 0 0-50 50v765a50 50 0 0 0 50 50h1134a50 50 0 0 0 50-50v-765a50 50 0 0 0-50-50h-54l26-57a22 22 0 0 0-22-30l-50 8-28-46a21 21 0 0 0-19-10c0 0 0 0-1 0z m-29 135a64 64 0 0 0-6-4l38-79 19 31a21 21 0 0 0 22 10l32-5-34 71a65 65 0 0 0-52-19q-1 0-3 0a28 28 0 0 1-16-5z m-126-52l19-31 38 79a64 64 0 0 0-6 4 28 28 0 0 1-19 5 65 65 0 0 0-52 19l-34-71 32 5a22 22 0 0 0 4 1 21 21 0 0 0 18-11z m72 81a28 28 0 0 1 12-4l0 0a29 29 0 0 1 9 0c0 0 0 0 0 0a28 28 0 0 1 12 4 65 65 0 0 0 43 12 28 28 0 0 1 29 16 64 64 0 0 0 8 14c0 0 0 0 0 1 1 0 1 0 1 0 0 0 0 1 1 1a64 64 0 0 0 21 16 28 28 0 0 1 17 29 64 64 0 0 0 11 43 28 28 0 0 1 0 33 64 64 0 0 0-11 43 28 28 0 0 1-17 28 64 64 0 0 0-31 32 28 28 0 0 1-29 16 65 65 0 0 0-43 12 28 28 0 0 1-33 0 65 65 0 0 0-43-12 28 28 0 0 1-29-16 64 64 0 0 0-31-32 28 28 0 0 1-17-28 64 64 0 0 0-11-43 28 28 0 0 1 0-33 64 64 0 0 0 11-43 28 28 0 0 1 17-29 64 64 0 0 0 21-16c1 0 1-1 1-1s0 0 1-1 0 0 0 0a64 64 0 0 0 8-14 28 28 0 0 1 29-16q3 0 6 0a64 64 0 0 0 37-12z m138 283a28 28 0 0 1 13-14 65 65 0 0 0 38-64 28 28 0 0 1 5-19 64 64 0 0 0 0-75 28 28 0 0 1-5-19 65 65 0 0 0-38-65c0 0-1 0-1 0l9-20h72a14 14 0 0 1 14 14v765a14 14 0 0 1-14 14h-1134a14 14 0 0 1-14-14v-765a14 14 0 0 1 14-14h777l9 20c0 0-1 0-1 0a65 65 0 0 0-38 65 28 28 0 0 1-5 19 64 64 0 0 0 0 75 28 28 0 0 1 5 19 65 65 0 0 0 38 64 28 28 0 0 1 14 14 65 65 0 0 0 64 38 28 28 0 0 1 19 5 65 65 0 0 0 75 0 28 28 0 0 1 19-5q3 0 6 0a65 65 0 0 0 59-38z m-235-135a112 112 0 1 0 112-112 113 113 0 0 0-112 112z m36 0a76 76 0 1 1 76 76 76 76 0 0 1-76-76z m-697-87a22 22 0 0 0-22 21 69 69 0 0 1-65 66 22 22 0 0 0-21 22v467a22 22 0 0 0 21 22 69 69 0 0 1 65 66 22 22 0 0 0 22 21h839a22 22 0 0 0 22-21 68 68 0 0 1 69-66h0a22 22 0 0 0 22-22v-320a18 18 0 0 0-36 0v307a104 104 0 0 0-89 86h-814a104 104 0 0 0-85-85v-443a104 104 0 0 0 85-85h521a18 18 0 1 0 0-36z m301 201a18 18 0 1 0 0 36h242a18 18 0 1 0 0-36z m-230 127a18 18 0 1 0 0 36h702a18 18 0 1 0 0-36z m178 99a18 18 0 1 0 0 36h524a18 18 0 1 0 0-36z m-178 0a18 18 0 1 0 0 36h94a18 18 0 1 0 0-36z m0 98a18 18 0 1 0 0 36h702a18 18 0 1 0 0-36z" horiz-adv-x="1234" />

<glyph glyph-name="icon9" unicode="&#xe808;" d="M1271 577l-524 256c-45 23-122 23-167 0l-536-256c-38-18-44-43-44-57s6-38 44-57l43-21v-241a74 74 0 0 1-46-68 75 75 0 0 1 45-68l-68-215h190l-68 215a73 73 0 0 1-1 136v215l79-39v-313a24 24 0 0 1 5-14c7-9 147-200 434-200s426 193 432 200a24 24 0 0 1 4 14v311l178 88c38 18 44 43 44 57-2 14-6 39-44 57z m-226-506c-24-30-154-174-388-174s-365 144-389 174v285l312-149c22-11 52-17 83-17 31 0 61 6 84 18l298 146z m205 434l-181-89a17 17 0 0 1-16-9l-327-158c-32-17-94-17-127 0l-402 193 463 54a23 23 0 1 1-5 47l-536-64-54 26c-14 6-17 13-17 13 0 2 3 8 17 14l536 257a156 156 0 0 0 62 13c24 0 48-5 63-13l524-255c13-6 16-13 16-16a41 41 0 0 0-16-13z" horiz-adv-x="1314" />

<glyph glyph-name="004-book" unicode="&#xe80c;" d="M500 850h-217c-9 0-16-7-16-17v-116h-250c-9 0-17-8-17-17v-833c0-10 8-17 17-17h483c9 0 17 7 17 17v966c0 10-8 17-17 17z m-17-867h-183v34h183z m-450 617h234v-500h-234z m450 67h-183v50h183z m-450-600h234v-50h-234z m267-17v583h183v-583z m183 767v-67h-183v67z m-216-134v-50h-234v50z m-234-700h234v-100h-234z m267-100v67h183v-67z m0 0m700 54l-200 767c-2 5-4 8-8 10-4 3-9 3-13 2l-250-67c-9-2-14-11-12-20l200-767c1-4 4-8 8-10 4-2 8-3 13-1l250 66c9 3 14 12 12 20z m-420 583l218 58 8-30-218-58z m234-5l97-370-218-58-96 370z m105-403l18-65-218-58-17 65z m-148 568l19-70-218-58-18 70z m-26-793l-18 70 218 58 18-70z m0 0m-528 663h-134c-9 0-16-7-16-17v-133c0-9 7-17 16-17h134c9 0 16 8 16 17v133c0 10-7 17-16 17z m-17-133h-100v100h100z m0 0" horiz-adv-x="1000" />

<glyph glyph-name="009-grandparents" unicode="&#xe811;" d="M775 491c3 8-1 16-9 19-7 2-16-2-19-9 0-2-5-6-13-6s-12 4-13 6c-2 7-11 11-18 9-8-3-12-11-9-19 5-15 21-25 40-25s36 10 41 25z m0 0m-487 135c-8 0-15-7-15-15v-31c0-11 9-20 20-20h10c8 0 15 7 15 15s-7 15-15 15h-1v21c0 8-6 15-14 15z m0 0m61-96c5 7 3 16-4 20-7 5-16 2-20-4-6-10-20-16-34-16-15 0-29 6-35 16-4 6-13 9-20 4-7-4-9-13-4-20 11-18 34-29 59-29 24 0 47 11 58 29z m0 0m-2 110v-14c0-8 7-15 15-15 8 0 14 7 14 15v14c0 8-6 15-14 15-8 0-15-7-15-15z m0 0m-113-14v14c0 8-7 15-15 15s-14-7-14-15v-14c0-8 6-15 14-15s15 7 15 15z m0 0m1 92h111c8 0 14 6 14 14s-6 15-14 15h-111c-8 0-14-7-14-15s6-14 14-14z m0 0m101-28c0 8-7 15-15 15h-61c-8 0-15-7-15-15 0-8 7-14 15-14h61c8 0 15 6 15 14z m0 0m610-320c-22 11-44 21-68 28 0 0 0 0 0 0-14 5-28 9-42 12-13 2-23 11-28 22 2 1 4 2 6 4 37 10 64 28 83 56 22 32 33 75 33 132 0 31-9 60-26 87-4 7-13 9-20 4-7-4-9-13-5-20 14-21 21-46 22-70-9 8-21 14-34 14-2 2-3 4-6 7-7 7-18 12-29 12-71 0-82 33-83 36-1 4-4 7-8 9-4 3-10 3-14 0-4-2-6-5-7-9-1-3-13-36-83-36-11 0-22-5-30-12-2-3-4-5-5-7-13 0-26-6-34-14 0 38 17 74 48 101 31 28 73 44 118 46 38-1 73-12 102-32 6-5 15-3 20 3 5 7 3 16-4 21-14 9-29 17-45 23-5 36-36 63-73 63-37 0-67-27-73-63-24-9-46-22-65-39-37-33-57-77-57-124 0-57 10-100 32-132 19-28 47-46 83-56 3-2 5-3 7-4-5-11-16-20-28-22-14-3-29-7-43-12 0 0 0 0 0 0-22-7-44-16-65-27-1 1-25 17-110 42l-32 25c0 0 0 0 0 0-6 4-12 6-19 6v11c7 3 14 7 20 11 40 26 61 63 61 105l0 8c23 3 40 23 40 47v16c0 14-6 27-16 36 3 3 5 7 7 12 12 31-4 89-42 120-52 42-111 29-125 25-7 1-13 1-18 1-6 0-12 0-19-1-14 4-73 17-125-25-38-31-54-89-42-120 2-5 4-9 7-12-10-9-16-22-16-36v-16c0-24 17-44 40-47l0-8c0-42 21-79 61-105 6-4 13-8 20-11v-11c-7 0-13-2-19-6 0 0 0 0 0 0l-33-25c-76-25-95-34-107-40-36-19-58-55-58-95v-203c0-21 17-38 37-38h926c20 0 37 17 37 38v208c0 37-21 70-54 87z m-212 451c17 0 32-10 40-24-24 4-35 4-40 4-6 0-16 0-39-4 7 14 22 24 39 24z m112-478c1-4-1-7-3-9-2-1-7-2-11 2-6 4-13 5-19 2-7-3-11-9-12-16 0-5-4-9-8-10 0 0 0 0 0 0-4-1-10 0-13 5-5 5-11 8-18 7-7-1-13-5-16-12-2-5-7-8-11-8 0 0-1 0-1 0 0 0 0 0 0 0-4 0-10 3-12 8-2 7-8 11-15 12-7 1-14-2-18-7-4-5-10-6-13-5-1 0-1 0-1 0-3 1-7 5-8 10 0 7-5 13-11 16-6 2-14 2-19-2-5-4-9-3-11-2-1 1-1 1-1 1-2 1-4 4-2 10 0 4 0 8-3 12-3 3-6 5-11 5-12 1-15 5-16 6 0 0 0 0 0 0 2 1 4 2 6 2 0 0 0 0 0 0 14 5 22 1 38-10 19-12 46-28 97-28 57 0 83 17 101 29 15 10 20 14 34 9 0 0 0 0 0 0 0 0 0 0 0 0 6-2 11-3 17-5 0-1 0-1 0-1-2-2-7-4-18-5-2 0-4 0-6 0-4 1-9-1-12-4-3-3-4-7-4-12z m-182 122c-17 11-34 33-38 62 10-7 24-11 40-11 32 0 57 18 57 41 0 0 0 0 0 0 0 0 0 0 0 1 0 6 5 11 11 11 7 0 12-5 12-11 0-1 0-1 0-1 0 0 0 0 0 0 0-23 25-41 57-41 16 0 30 4 40 11-4-29-23-50-38-62-20-16-51-26-71-26-20 0-41 7-70 26z m2 104c17 0 27-8 27-12s-10-12-27-12-28 8-28 12 11 12 28 12z m137 0c17 0 27-8 27-12s-10-12-27-12-28 8-28 12 11 12 28 12z m63-70c4 11 7 23 7 36 6 1 11 2 16 5-6-16-13-30-23-41z m18 95v-14c0-7-5-13-11-15l1 43c5-2 10-7 10-14z m-247 34c54 1 83 18 97 34 15-16 43-33 98-34 10 0 12-9 12-12l0-31c-8 6-18 10-30 12v2c0 8-7 15-15 15-8 0-14-7-14-15v-3c-8-2-16-5-22-9-7 7-17 12-29 12-11 0-21-5-29-12-6 4-13 7-21 9v3c0 8-7 15-15 15-8 0-14-7-14-15v-2c-12-2-23-6-31-12 0 0 0 31 0 31 0 4 2 12 13 12z m-52-34c0 7 4 12 10 14l0-43c-6 2-10 8-10 15z m-5-54c5-3 10-4 15-5 1-13 4-25 8-36-10 11-18 25-23 41z m107-121c16-6 33-10 47-10 15 0 31 4 47 10 8-16 21-28 37-34-17-11-37-24-84-24-43 0-63 13-81 24-1 0-1 0-1 0 16 7 28 19 35 34z m-135-141v-211h-58v287c5-2 10-5 15-8 26-13 43-39 43-68z m-164 118l-33-46-40 24 46 40c1 1 3 1 5 0z m-97-41l47-29-50-71-48 70z m165 271c0-8-5-14-11-17l0 50c6-3 11-9 11-17z m-10 115c5-16 6-32 3-41-2-4-5-7-8-8-8 26-29 82-76 118 16-3 34-9 51-23 13-11 24-27 30-46z m-311 0c6 19 17 35 30 46 17 14 36 21 52 23-22-16-40-38-55-65-11-21-18-41-22-53-3 1-6 4-8 8-3 9-2 25 3 41z m-10-115v16c0 8 5 14 11 17l0-50c-6 3-11 9-11 17z m41-55l0 22c0 0 0 0 0 0 0 0 0 0 0 0l0 81c1 5 7 31 22 57 22 40 50 65 86 75 5 1 11 1 17 1 5 0 11 0 16-1 36-10 64-35 86-75 15-26 21-51 22-57l0-103c0-78-92-106-124-106-33 0-125 28-125 106z m124-136h1 0c11 1 27 3 44 8v-12l-44-39-45 39v12c17-5 33-7 44-8z m-75-21c2 1 4 1 5 0l46-40-42-25-32 47z m-113-179c-8 0-15-6-15-14v-154h-50c-4 0-8 3-8 8v203c0 29 17 55 43 68 5 3 10 6 15 8v-65c0-8 7-15 15-15s14 7 14 15v77c16 7 33 12 50 16l102-150c4-6 12-10 20-10 8 0 15 4 20 10l107 151c17-5 33-10 50-17v-299h-349v154c0 8-6 14-14 14z m869-160c0-5-4-8-8-8h-46v146c0 8-7 15-15 15-8 0-14-7-14-15v-146h-307v211c0 28-11 54-30 74 5 2 10 4 14 6 1-3 3-5 4-7 6-8 14-13 24-16 2-11 8-20 17-25 9-6 21-8 32-4 5-11 14-19 25-22 12-4 25-1 35 6 8-10 20-15 32-15h1c12 0 24 5 32 15 10-7 23-10 34-6 12 3 21 11 26 22 11-4 23-2 32 4 0 0 0 0 0 0 7 5 12 12 15 20 16 2 28 7 35 17 2 2 3 4 4 7 7-3 13-7 20-10 23-12 38-35 38-61z m0 0" horiz-adv-x="1000" />

<glyph glyph-name="010-father" unicode="&#xe812;" d="M918 295l-110 44v26h100c8 0 15 7 15 15v136c5 6 8 13 8 21v31c0 8-3 16-8 22v67c0 95-77 172-173 172h-15c-36 0-71-11-100-32-7-4-9-14-4-20 5-7 14-9 21-4 24 18 53 27 83 27h15c79 0 143-64 143-143v-55h-120c-29 0-58 13-77 36-3 3-5 7-7 10-4 5-9 7-15 6-6-1-11-6-11-13-3-19-14-39-36-39h-35v55c0 24 6 48 17 68 4 8 2 17-5 21-8 4-17 1-21-6-13-26-21-54-21-83v-67c-4-6-7-13-7-20-12 5-25 8-38 8h-36c-12 0-24-3-35-7v18c0 8-3 15-8 21v67c0 96-78 173-173 173h-15c-96 0-173-77-173-173v-67c-5-6-8-13-8-21v-31c0-19 16-34 34-34h25c4-43 29-80 65-100v-64l-111-44c-50-20-82-68-82-121v-16c0-8 7-15 15-15 8 0 15 7 15 15v16c0 41 24 78 63 93l51 21c17-30 47-46 49-47 2-1 4-2 7-2 3 0 6 1 9 3l34 26v-68c0-8 6-15 14-15 9 0 15 7 15 15v68l34-26c3-2 6-3 9-3 3 0 5 1 7 2 2 1 32 17 49 47l51-21c11-4 20-10 29-17v-4l-27-4c-29-4-55-17-76-38-5-6-5-16 1-21 3-3 6-5 10-5 4 0 8 2 11 5 16 16 36 27 59 30l25 4c6-19 24-32 45-32 21 0 39 13 45 32l25-4c51-7 89-52 89-102v-31h-46v9c0 9-6 15-14 15-9 0-15-6-15-15v-9h-168v9c0 9-6 15-15 15-8 0-14-6-14-15v-9h-46v31c0 6 1 12 2 18 1 8-4 16-12 18-8 1-16-4-17-12-2-8-2-16-2-24v-31h-181v23c0 8-7 15-15 15-8 0-15-7-15-15v-23h-70v9c0 8-7 15-15 15-8 0-15-7-15-15v-24c0-8 7-15 15-15h970c8 0 15 7 15 15v88c0 54-32 101-82 121z m-74-2c-9-29-57-43-101-43-45 0-92 14-102 43l57 23c6 2 9 7 9 13v62c12-3 23-5 36-5 12 0 24 2 35 5v-62c0-6 4-11 9-13z m-277 2c-7-3-13-6-20-10v5c30 15 53 42 60 75h71v-26z m-245 65v64c36 20 61 57 65 100h9c-5-12-8-26-8-40v-94c0-24 7-46 20-64z m89 233c3 0 5-2 5-4v-31c0-2-2-4-5-4h-23v39z m6-203v38h61c5 0 9 2 12 5l9 11 9-11c3-3 7-5 12-5h61v-38c0-45-37-81-82-81-45 0-82 36-82 81z m261 5h-68v89c0 7 0 13-2 19h5c4-43 29-79 65-100z m-92 177c1 0 2 1 3 1h23v-40h-15c-4 6-8 11-13 16v19c0 2 1 3 2 4z m222-177v8c35 21 60 57 64 100h21v-108z m93 173v-31c0-2-2-4-4-4h-24v40h24c2 0 4-2 4-5z m-128 5h70v-57c0-55-45-101-100-101s-101 46-101 101v58c21 5 34 19 41 34 17-16 47-35 90-35z m-256-25c35 0 64-28 64-64v-26h-55l-16 19c-3 3-7 5-11 5s-8-2-11-5l-17-19h-54v26c0 36 29 64 64 64z m-267 272h15c79 0 143-64 143-143v-54h-27l-11 16c-1 1-1 2 0 3 4 10 4 21-2 30-6 10-16 15-27 15h-167c-11 0-21-5-27-15-6-9-6-20-2-30 1-1 1-2 0-3l-11-16h-27v54c0 79 64 143 143 143z m-151-262v31c0 2 2 4 4 4h24v-39h-24c-2 0-4 2-4 4z m58-21v67l13 19c6 9 7 21 2 31 0 1 0 2 0 3 1 0 1 1 2 1h167c1 0 1-1 2-1 0-1 0-2 0-3-5-10-4-22 2-31l13-19v-67c0-56-45-101-101-101s-100 45-100 101z m100-131c13 0 24 2 36 5v-53l-36-21-35 21v53c11-3 23-5 35-5z m-58-113c-8 5-19 15-27 27l34 14 25-16z m117 0l-32 25 25 16 34-14c-8-12-19-22-27-27z m183-57c-10 0-19 8-19 18v27c6-1 13-2 19-2 6 0 13 1 19 2v-27c0-10-9-18-19-18z m471-135h-70v23c0 8-7 15-15 15-8 0-15-7-15-15v-23h-183v31c0 31-11 62-32 87-21 24-50 40-81 44l-4 1c2 1 5 3 8 4l35 14c7-17 20-32 40-42 23-13 54-19 90-19 35 0 66 6 89 19 20 10 34 25 40 42l35-14c39-16 63-52 63-94v-73z m0 0" horiz-adv-x="1000" />

<glyph glyph-name="012-businessman" unicode="&#xe814;" d="M607 342l-75 29-43 42c-2 3-6 5-10 5v35c21 21 35 49 41 79 0 0 0 0 0 1 3-1 7 0 11 0 20 4 35 23 35 45v11c0 13-6 24-14 32 14 74 3 135-32 175-34 39-88 57-157 54-64-4-105-34-118-44-18-2-68-15-68-86 0-39 6-72 10-90-15-7-25-23-25-41v-11c0-22 15-41 35-45 4 0 7-1 11 0 0-1 0-1 0-1 6-30 20-58 41-79v-35c-4 0-8-2-11-5l-42-42-84-33c-41-15-67-55-65-98l12-298c0-8 7-14 15-14 0 0 0 0 0 0 8 1 15 7 14 15l-12 298c0 8 1 16 3 23l48-47c13-14 21-32 21-51v-223c0-8 6-15 14-15s15 7 15 15v223c0 27-10 52-30 71l-53 54c7 9 17 16 28 20l79 30 59-89c8-11 19-18 32-20 2 0 3 0 4 0 8 0 16 2 23 7l-13-295c0-9 6-15 14-16 0 0 1 0 1 0 8 0 14 6 14 14l12 274h34l11-274c1-8 7-14 15-14 0 0 1 0 1 0 8 1 14 7 14 16l-13 295c7-5 14-7 22-7 2 0 3 0 5 0 13 2 24 9 32 20l59 89 69-26c2-1 4-1 6-1 5 0 11 3 13 9 3 7-1 16-8 19z m-370 196c-3 14-16 25-30 24-2 0-3 0-4 0-7 1-12 8-12 16v11c0 7 6 14 12 15 5 1 11-1 14-5 3-4 6-6 10-8 6-1 13 0 18 3 12 9 22 19 30 32 5 7 3 16-4 20-7 5-16 3-20-4-5-7-10-14-17-19-5 4-11 7-17 9-4 15-11 48-11 88 0 24 7 40 22 50 11 7 23 7 23 7 4 0 8 2 10 4 1 1 39 36 104 39 59 4 105-12 133-43 27-32 37-82 26-143-4 0-9-1-14-1l-14 35c-3 7-11 10-18 8-1 0-143-36-203 38-6 7-15 8-21 3-6-5-7-15-2-21 61-76 182-59 221-51l12-27c4-11 16-17 28-15 5 1 10 2 12 1 6-1 11-8 11-15v-11c0-8-4-15-11-16-1 0-2 0-4 0-14 1-27-10-30-24-11-61-65-106-127-106-62 0-116 45-127 106z m69-272c-3-3-7-5-11-4-4 0-8 2-10 6l-61 90 25 25 94-81-37-36z m43-21l1 22 14 15 14-15 1-22h-30z m15 77l-86 75v31c25-16 54-25 86-25s61 9 86 25v-31l-86-75z m79-54c-2-4-6-6-10-6-3-1-7-1-12 4l-36 36 93 81 25-25-60-90z m510-106c0 34-28 62-62 62h-94v32c0 25-21 46-46 46h-94c-26 0-46-21-46-46v-32h-95c-34 0-62-28-62-62v-43c0-16 5-32 16-46v-163c0-33 27-60 60-60h347c33 0 60 27 60 60v163c11 14 16 30 16 46l0 43 0 0z m-313 94l0 0c0 9 7 17 17 17h94c9 0 16-8 16-17v-32h-127v32z m284-137c0-25-24-50-65-69v3c0 8-6 14-15 14h-62c-8 0-15-6-15-14v-47c0-26 21-46 46-46s46 20 46 46v12c19 8 36 17 49 26v-134c0-17-14-31-31-31h-347c-17 0-31 14-31 31v134c14-9 30-18 49-26v-12c0-26 21-46 46-46 22 0 40 15 45 35 21-3 43-4 65-4 5 0 10 0 16 0 8 0 14 7 14 15 0 8-7 15-15 14-5 0-10 0-15 0-22 0-43 2-64 5v28c0 8-7 14-15 14h-62c-8 0-15-6-15-14v-3c-41 19-65 44-65 69v43c0 18 15 32 33 32h375c18 0 33-14 33-32v-43z m-94-81v-32c0-10-8-17-17-17s-16 7-16 17v32h33z m-253-32v32h34v-32c0-10-8-17-17-17s-17 7-17 17z" horiz-adv-x="1000" />

<glyph glyph-name="013-worker" unicode="&#xe815;" d="M950 20c-99 53-176 82-244 94l7 9c4 4 5 9 4 14l-16 62c41 59 66 132 66 201v67h16 34c10 0 16 6 16 16s-6 17-16 17h-17v17c0 131-87 243-217 280v3c0 27-21 50-50 50h-66c-27 0-50-22-50-50v-3c-130-37-217-149-217-280v-17h-17c-10 0-16-7-16-17s6-16 16-16h34 16v-67c0-69 25-142 66-201l-16-62c0-4 0-10 4-14l7-9c-68-12-144-41-244-94-32-15-50-47-50-82v-71c0-10 7-17 17-17h400 6 154 6 400c10 0 17 7 17 17v71c0 34-20 65-50 82z m-460 15l10 23 25-55 16-36h-81l30 68z m-43-102h106l9-50h-125l10 50z m228 234l7-30-17-24c-1-1-2-2-3-3l-70-96-22-30-45 101c54 7 102 33 141 72 0 1 1 1 1 1 0 1 0 1 0 1 3 2 6 5 8 8z m-22 561c2-1 4-2 6-4 21-15 41-34 56-54l-77-15 15 73z m-291-73l-77 15c15 20 35 39 56 54 2 2 4 3 6 4l15-73z m-129-138c0 44 12 86 32 122l115-22c2 0 2 0 3 0 5 0 9 1 14 3 5 3 6 10 5 15l-23 111c12 6 25 11 38 15v-44c0-10 6-17 16-17s17 7 17 17v66 17c0 8 7 17 17 17h66c9 0 17-7 17-17v-17-66c0-10 7-17 17-17 10 0 16 7 16 17v44c14-4 27-9 39-15l-22-109c0-5 2-12 5-15s7-5 12-5c1 0 1 0 3 0l115 24c20-37 32-79 32-124v-17h-17-500-17v17z m34-50h466v-67c0-73-25-137-62-186l-1-1c-2-1-3-3-5-5-8-11-17-21-26-30-40-37-86-59-132-61-2 1-4 1-7 1-3 0-5 0-7-1-28 1-56 10-83 25-27 15-52 38-75 66-2 2-3 4-5 5l-1 1c-37 49-62 113-62 186v67z m208-382l-45-101-22 30-70 96c0 1-1 1-1 2l-19 25 7 30c2-3 5-5 7-7 39-40 88-68 143-75z m-442-147c0 22 12 42 32 52 106 56 183 85 251 93l99-137-12-63h-370v55z m934-55h-370l-12 63 100 139c68-10 146-39 250-93 20-12 32-32 32-54v-55z" horiz-adv-x="1000" />

<glyph glyph-name="014-deck-chair" unicode="&#xe816;" d="M968 36h-5c4 8 7 17 7 27 0 30-25 55-56 55h-298l0 292c4-1 9-2 15-2h52c21 0 41 9 55 25 1 1 3 3 4 5 13-18 35-30 59-30h53c22 0 43 10 57 27 14 17 19 39 15 60-13 62-42 119-83 166-6 6-15 7-21 2-6-6-7-15-1-21 38-43 64-96 76-152 3-13-1-26-9-36-8-11-21-17-34-17h-53c-23 0-42 18-44 40-1 11-2 22-4 32 0 1 0 1 0 1-7 49-22 96-46 139-3 7-7 14-11 20-9 14-19 28-30 40-6 8-12 15-19 21-6 7-13 13-20 19 0 0-1 1-1 1 53-9 104-30 147-64 7-5 16-3 21 3 5 6 4 16-3 21-52 39-112 63-175 71l0 24c0 25-20 44-44 44-24 0-44-19-44-44l0-24c-68-8-132-36-186-80-63-52-107-125-124-206-4-21 2-43 15-60 14-17 35-27 57-27h53c24 0 46 12 59 30 1-2 3-4 4-5 14-16 34-25 55-25h52c5 0 10 1 15 2l0-20c0-8 7-15 15-15 8 0 14 7 14 15l0 33c6 4 11 9 15 14 4-5 9-10 14-14l0-305h-29l0 204c0 8-6 14-14 14-8 0-15-6-15-14l0-204h-178c8 14 23 23 41 23h66c23 0 42 20 42 43 0 24-19 43-42 43h-73c-63 0-116-48-125-109h-34c-2 0-3 1-5 3l-118 173c-8 13-22 21-37 24-15 2-30-1-42-9-24-18-30-52-13-77l132-193c0-1 1-2 1-3h-23c-18 0-32-14-32-32v-30c0-17 14-32 32-32h13v-67c0-13 11-24 25-24h43c13 0 24 8 29 20 1 1 1 2 1 3l13 68h52c8 0 14 7 14 15s-6 14-14 14h-176c-1 0-3 2-3 3v30c0 1 2 3 3 3h848c1 0 3-2 3-3v-30c0-1-2-3-3-3h-604c-8 0-15-6-15-14s7-15 15-15h480l13-68c0-1 0-2 1-3 4-12 16-20 29-20h43c13 0 24 11 24 24v67h14c17 0 32 15 32 32v30c0 18-15 32-32 32z m-411 769c0 8 7 15 15 15s14-7 14-15l0-22c-4 1-9 1-14 1-5 0-10 0-15-1z m-214-368h-53c-13 0-26 6-34 17-8 10-11 23-9 36 15 73 56 140 114 189 45 37 99 61 157 71-15-13-30-28-42-43-15-18-28-37-39-58-4-8-8-15-12-23-15-32-27-71-34-116 0 0 0 0 0-1-2-11-3-21-4-32-2-22-21-40-44-40z m170 0h-52c-13 0-25 6-33 15-14 15-11 34-8 53 0 0 0 0 0 0 6 42 18 78 31 107 0 0 0 0 0 0 7 16 16 31 25 46 0 0 1 1 1 1 11 18 26 36 41 51 11 12 24 22 37 32 0 0 1 0 1 0 0 0 1 1 1 1v-262c0-24-19-44-44-44z m74 306c25-17 69-55 102-121 0-1 1-2 1-3 0-1 1-1 1-2 21-46 31-93 36-131 1-12-3-25-11-34-8-9-20-15-33-15h-52c-25 0-44 20-44 44z m-424-801h51l-11-61c-1 0-1-1-2-1h-38v62z m95 94h-56c-15 0-28 7-36 19l-132 193c-8 12-5 28 6 37 5 3 10 4 15 4 2 0 3 0 5 0 7-1 14-5 18-12l118-173c7-9 18-15 29-15h33v-53z m56 58v-58h-27v64c0 54 44 97 97 97h73c7 0 13-6 13-13s-6-13-13-13h-66c-43 0-77-35-77-77z m600-58h-571v53h571c15 0 26-12 26-26s-11-27-26-27z m11-156h-38c-1 0-1 1-2 1l-11 61h51v-62z" horiz-adv-x="1000" />

<glyph glyph-name="015-diet" unicode="&#xe817;" d="M387 462c-9 9-21 14-33 14-25 1-46-19-47-44 0-8 7-15 15-15 0 0 0 0 0 0 8 0 15 6 15 14 0 9 7 16 16 16 5 0 9-2 12-5 6-6 15-7 21-1 6 5 6 15 1 21z m78-48c-5 10-14 19-24 23-22 8-46-3-54-25-3-8 1-16 9-19 1 0 3-1 5-1 6 0 11 4 13 10 3 6 10 10 17 7 3-1 5-3 7-7 3-7 11-10 19-7 7 3 11 11 8 19z m94 130c-6 5-15 5-21 0l-13-14c-6-6-6-15 0-21 2-3 6-4 10-4 4 0 7 1 10 4l14 14c6 6 6 15 0 21z m-91-189h-20c-8 0-14-7-14-15 0-8 6-15 14-15h20c8 0 15 7 15 15 0 8-7 15-15 15z m150 0h-20c-8 0-15-7-15-15 0-8 7-15 15-15h20c8 0 14 7 14 15 0 8-6 15-14 15z m382-265l-4 21c-3 13-14 23-28 23-1 0-3 0-5-1l-77-14 35 23c9 7 14 18 12 29-1 3-2 5-3 8l-11 19c-4 6-10 11-17 13-4 1-7 1-11 1 4 21 6 44 6 66 0 10-6 19-14 22 11 27 12 57 0 85 0 3-2 5-3 6-2 2-4 3-6 4-14 6-28 8-42 8-2 0-4 0-5 0-2 41-36 74-77 74-6 0-11-1-16-2 3 21 1 44-7 65-1 2-2 4-4 6-2 1-4 3-6 4-15 5-30 8-45 8-23 0-45-6-64-18-7 20-19 39-35 55-4 5-11 7-17 7-7 0-13-2-18-7l-71-71c-13 12-30 19-49 19-4 0-8-1-13-2-15-2-29-10-40-21-14 7-29 9-45 7-3-1-6-2-9-3v55c0 38-31 68-68 69v31c11 2 20 12 20 24v71c0 13-11 24-24 24h-120c-13 0-24-11-24-24v-71c0-12 9-22 20-24v-31c-37-1-67-31-67-69v-428c-30-26-48-63-48-104 0-80 70-145 157-145l586 0c20 0 39 9 52 24 12 15 18 35 15 54l117-21c1-1 3-1 5-1 5 0 11 2 16 5 6 5 10 11 11 19l3 21c1 3 1 6 0 9-2 11-10 20-21 22l-41 10 77 14c8 1 14 6 18 12 4 6 6 13 5 20z m-168 284c9 0 18-1 26-4 7-23 5-47-7-68h-40l13 13c6 6 6 15 0 21-6 6-15 6-21 0l-6-7c-3 10-9 20-16 27 14 12 32 18 51 18z m-82 73c26 0 47-21 47-48 0 0 0-1 0-1-15-5-29-14-41-25-2 1-4 1-6 2-5 23-20 42-41 50 9 14 24 22 41 22z m-78 82c10 0 20-2 29-5 8-22 6-46-3-67-8-8-15-17-19-26-3-1-5-1-8-1-11-2-22-7-31-15-3 6-7 11-11 16l33 33c6 6 6 15 0 21-5 6-15 6-20 0l-37-37c-7 4-15 6-23 7 4 18 12 34 25 47 18 17 41 27 65 27z m-112-227h-13c-2 6-7 10-13 10s-12-4-14-10h-15c3 6 3 14-2 19-6 5-15 5-21-1l-14-13c-1-2-2-3-3-5h-29c-12 18-18 38-19 60h232c-1-22-7-42-19-60h-31c0 2-1 3-3 5l-13 13c-6 6-15 6-21 1-5-5-6-13-2-19z m-34 89c5 20 24 35 46 35 22 0 41-15 46-35h-92z m30 180c14-15 23-33 27-52-7-8-13-17-18-26-2 1-5 2-8 2h-19c-8 0-15-7-15-15 0-8 7-14 15-14h17c-1-5-2-9-2-13-6-1-12-3-17-6-10 17-26 29-45 34 0 0 0 0 0 0-1 7-3 13-6 19l71 71z m-265-132c-1 2-2 5-2 7-4 24 12 48 36 52 3 0 6 0 8 0 10 0 19-3 27-8 3-3 7-4 11-3 4 1 8 3 10 6 7 11 17 17 29 20 3 0 6 0 8 0 22 0 40-15 44-37 0-2 1-5 1-7 0-8 5-14 13-15 16-1 30-12 37-26-9-10-15-23-17-37h-84c-10 0-19-7-23-16-18 13-40 20-62 20-15 0-29-3-42-8-2-1-4-2-6-4-2-2-3-4-4-6-3-9-5-17-7-26-5 6-9 13-10 21-3 20 7 40 25 49 7 3 10 11 8 18z m44-132l4-5h-36c-7 19-9 40-2 59 8 3 17 4 26 4 22 0 42-8 58-24 2-2 4-4 6-6 2-12 6-22 11-33h-22l-25 25c-5 6-15 6-20 0-6-5-6-15 0-20z m-63-5h-52c2 15 11 27 23 34 7-9 16-17 26-22 1-4 2-8 3-12z m-148 467h110v-61h-110v61z m89-90v-31h-68v31h68z m-136-159h95c8 0 15 6 15 14 0 8-7 15-15 15h-95v30c0 22 18 40 40 40h125c21 0 39-18 39-40v-30h-27c-8 0-15-7-15-15 0-8 7-14 15-14h27v-13c-16-17-25-41-21-66 0 0 0 0 0 0-23-16-36-45-31-74 0-1 1-3 1-4-7-5-14-10-19-16h-134v173z m0-202l0 0h117c-2-5-3-10-4-16h-2c-14 0-24-10-24-24 0-23 2-46 6-68-4 0-9 0-13 0-18 0-35-3-48-8-19-8-25-19-26-26-2-1-4-3-6-4v146z m185-180c6-4 9-8 11-10-1 0-1 0-1 0-8 0-23 3-40 12-6 4-12 8-17 12-5 4-13 4-19 0-4-4-10-8-17-12-16-9-31-12-40-12 0 0 0 0 0 0 2 2 5 6 10 10 5 4 7 10 5 15-2 6-6 10-12 11-15 2-24 5-28 8 5 3 19 9 43 9 20 0 35-4 42-8 4-3 9-3 14 0 7 4 21 8 41 8 25 0 38-6 43-9-4-3-13-6-27-8-6-1-11-5-13-11-1-5 1-11 5-15z m-29-178l0-3c2-10 6-18 11-26h-87c-70 0-128 52-128 116 0 44 27 82 66 102 5-3 11-6 17-8-2-5-4-10-5-15 0-7 2-13 6-18 6-6 15-10 26-10 16 0 36 6 55 17 4 2 8 4 12 7 3-3 8-5 12-7 18-11 39-17 54-17h0c12 0 21 4 26 10 5 5 7 11 6 18 0 5-2 10-5 15 7 2 12 5 17 8 31-16 54-43 63-75l-104-40c-30-11-48-43-42-74z m539-15c-7-9-18-14-29-14l-15 0-10 52c-1 8-9 14-17 12-8-1-13-9-12-17l9-47-50 0-7 35c-1 8-9 14-17 12-8-1-13-9-12-17l6-30-117 0-9 48c-2 8-9 13-17 12-8-2-14-9-12-17l8-43-171 0c0 0 0 0 0 0-19 0-34 13-38 31l0 3c-4 18 6 36 24 42l57 22 4-23c2-7 8-12 15-12 1 0 2 0 2 0 8 1 14 9 12 17l-5 28 85 33c8 3 12 11 9 19-3 7-11 11-19 8l-40-15c-11 40-40 73-78 92-1 7-6 18-26 26-13 5-30 8-48 8-12 0-23-1-34-4v9c0 8-6 15-14 15-4 0-7-1-9-3-3 15-4 30-4 46h477c8 0 15 7 15 15 0 8-7 15-15 15h-6c9 19 15 40 15 63 0 13-10 24-23 25 6 5 12 8 20 10 2 0 5 0 7 0 19 0 35-13 38-32 0-2 1-4 1-6 0-8 5-14 13-15 17-2 32-15 35-32 1-5 0-9 0-13h-16c-8 0-15-7-15-15 0-8 7-15 15-15h114c-1-27-4-53-10-78l-80-47c-5 17-16 31-32 40-17 9-38 11-56 4l-164-62c-7-3-11-12-8-19 2-8 11-11 18-9l22 9 7-37c1-7 7-12 14-12 1 0 2 1 3 1 8 1 13 9 12 17l-8 41 114 43c11 4 22 4 32-2 10-5 17-15 19-26l29-160c3-11 0-22-8-31z m53 115c-7-1-12-7-12-14-1-7 4-13 11-15l109-25-3-18-126 23-20 106 110 65 9-16-92-62c-6-4-9-11-6-18 3-6 9-10 16-9l146 27 3-17-145-27z" horiz-adv-x="1000" />

<glyph glyph-name="016-tshirt" unicode="&#xe818;" d="M174 142c0-8 6-14 14-14 8 0 15 6 15 14 0 49 0 199 0 246 0 8-7 15-15 15-8 0-14-7-14-15v-62l-137 38 19 125c4 23 19 42 40 51l193 76 97-115c4-6 13-7 19-3l29 18v-157c0-8 7-15 15-15 8 0 15 7 15 15v157l29-18c7-4 15-3 19 3l98 117c111-44 107-43 113-43 16 0 20 22 5 28l-103 41c-1 2-2 5-4 7-37 41-35 39-36 40-7 6-5 2-118 3v15c32 7 56 36 56 70 0 39-32 71-71 71-39 0-71-32-71-71 0-8 6-15 14-15 9 0 15 7 15 15 0 23 19 42 42 42 23 0 42-19 42-42s-19-42-42-42c-8 0-15-7-15-15v-28c-116 0-117 3-123-3-2-1 0 1-37-40-3-3-4-6-4-10l-187-74c-31-12-54-40-59-73l-26-171c-4-22 9-42 30-48l143-41z m275 421l-52 58 55 43 52-41c-20-21-44-47-55-60z m49-34l-26 16c23 26 83 90 103 113l16-17z m26 116l-26 20h44z m-118 20l-29-23-21 23z m-83-7c25-28 87-95 103-113l-26-16-93 112z m-284-355c-6 2-11 8-9 15l2 17 142-39v-32z m0 0m865 20l-27 171c-5 33-28 61-58 73l-36 14c-8 3-16-1-19-8-3-8 0-16 8-19l36-14c21-9 36-28 40-51l19-125-143-39v63c0 8-6 15-14 15-8 0-15-7-15-15v-427h-492v127c0 8-7 14-15 14-8 0-14-6-14-14v-202c0-20 16-36 35-36h480c19 0 35 16 35 36v346l149 43c21 6 34 26 31 48z m-694-444c-4 0-7 4-7 8v45h492v-45c0-4-3-8-7-8h-478z m655 424l-141-41v32l148 41 3-17c1-7-3-13-10-15z m0 0" horiz-adv-x="1000" />

<glyph glyph-name="017-gift" unicode="&#xe819;" d="M983 450h-16v317c0 26-22 50-50 50h-332-2-165c0 0 0 0 0 0-1 0-1 0-1 0h-334c-26 0-50-22-50-50v-317h-16c-10 0-17-7-17-17v-166c0-10 7-17 17-17h16v-317c0-26 22-50 50-50h334 166 334c26 0 50 24 50 50v317h16c10 0 17 7 17 17v166c0 10-7 17-17 17z m-50 317v-317h-150c-2 15-5 29-10 37-16 30-46 48-83 48h-2c-33 0-62-22-86-48v296h315c8 0 16-6 16-16z m-212-537c0-1 0-1-1-2-1 0-1-1-2-1 0-1-1-1-1-1 0 0 0-1 0-1-13-9-31-10-48-7-10 3-21 7-31 13-25 15-47 41-50 73 3 5 6 10 7 16l45-33c3-2 7-4 10-4 5 0 10 2 13 7 5 7 4 18-3 23l-49 37 49 37c7 5 8 16 3 23-5 7-16 8-23 3l-45-33c-3 10-7 19-13 27 2 2 4 5 6 8 4 3 7 8 10 13 1 1 1 2 1 2 16 21 55 68 89 68 18 0 33-5 43-15 4-4 7-8 9-13 5-10 8-55 7-72 0-5 0-13 0-23 0-25-1-73-10-108-5-21-11-32-16-37z m-146-85l-3-5c-1-1-2-1-3-2l-45 115c13 3 26 9 37 18 4-10 9-19 15-28 8-12 19-23 30-31l22-48-28 4c-7 0-13-3-17-8l-8-15z m-167 15c-3 5-10 8-15 8-1 0-1 0-1 0l-29-5 19 40c0 0 0 0 0 0 28 17 47 41 58 68 10-9 22-15 36-18l-54-116-14 23z m-130 68c-4 5-12 16-17 40-1 0-1 1-1 2-8 35-10 77-10 105 0 0 0 0 0 0 0 10 0 18 0 23 0 5 0 19 2 34 0 0 0 1 0 1 0 0 0 0 0 0 1 24 5 34 6 37 10 20 28 30 52 30 1 0 1 0 2 0 0 0 0 0 0 0 1 0 2 0 3 0 36-3 75-54 88-72 1 0 1-1 2-2 3-4 6-8 8-11 2-2 4-5 5-7-6-8-10-18-13-28l-45 33c-7 5-18 4-23-3s-4-18 3-23l49-37-49-37c-7-5-8-16-3-23 3-5 8-7 13-7 3 0 7 2 10 4l44 33c1-5 3-10 4-15-1-38-31-68-63-82-6-2-12-4-18-6-18-3-36-1-49 11z m281 154c0 0 0 0 0 0 0-1 0-1 1-2 4-8 6-18 7-27 0-1 0-2 0-3 0-1 0-3 0-4 0 0 0 0 0 0-1-7-3-14-5-20-4-2-7-4-9-8-11-20-33-33-56-33-10 0-19 2-27 6-10 5-19 12-25 22 0 1-1 2-2 4-5 8-9 18-9 29 0 0 0 0 0 0-1 1-1 3-1 4 0 1 0 2 0 3 1 16 8 31 22 40 2 3 3 6 4 9 11 9 25 15 41 15 25 0 47-14 59-35z m8 63c-3-3-5-6-7-8-1-1-1-2-2-3 0-1-1-1-1-2-14 10-31 16-49 18 0 0-1 0-1 0-1 0-2 0-3 0-1 0-3 0-4 0-1 0-3 0-4 0-1 0-2 0-3 0 0 0 0 0-1 0-14-1-28-6-40-13-3-1-6-2-8-4 0 0-1 0-1 0-3 4-6 9-10 13v337h134v-338z m-500 322c0 8 8 16 16 16h319v-298c-27 27-57 48-90 48-39-1-67-18-84-48-1-3-5-10-8-35h-153v317z m-34-350h17 167c0-9 0-17 0-22 0-3 0-12 0-20 1-23 1-58 6-92h-173-17v134z m34-484v317h164c5-19 13-35 24-47 15-13 35-21 58-21 7 0 14 0 22 2l-17-36c-3-5-1-11 2-16 5-5 10-9 17-7l48 8 15-26v-190h-317c-8 0-16 6-16 16z m368 154c2 1 3 3 5 6l60 132 52-132c0 0 0 0 0 0 2-5 7-10 13-10h1c0 0 1 0 1 0v-166h-132v170z m498-154c0-8-6-16-16-16h-317v205l7 11 41-6c2 0 3 0 4 0l1 0c7 0 14 1 17 6s5 12 2 17l-18 37c11-4 22-5 33-5 23 0 43 8 61 25 11 10 18 25 23 43h162v-317z m34 350h-17-171c4 30 5 63 6 94 0 8 0 15 0 20 0 4 0 11 0 20h165 17v-134z" horiz-adv-x="1000" />

<glyph glyph-name="yahta" unicode="&#xe81b;" d="M600-150a21 21 0 0 0 0 42h222a21 21 0 0 0 0-42z m-134 0a21 21 0 0 0 0 42h45a21 21 0 0 0 0-42z m490 89a21 21 0 0 0 0 42h44a21 21 0 0 0 0-42z m-490 0a21 21 0 0 0 0 42h401a21 21 0 0 0 0-42z m-267 0a21 21 0 0 0 0 42h178a21 21 0 0 0 0-42z m-178 89a21 21 0 0 0 0 42h309l-18 87a21 21 0 0 0 20 25l158 5v22l-138 20a21 21 0 0 0-16 29l154 375v196a21 21 0 1 0 42 0v-57l549-462a21 21 0 0 0-12-36l-537-44v-42l445 16a21 21 0 0 0 20-30l-52-104h323a21 21 0 0 0 0-42z m337 113l14-71h526l46 91z m26 126l106-15v271z m148 362v-357l483 39-483 406z" horiz-adv-x="1288" />

<glyph glyph-name="left" unicode="&#xf177;" d="M1000 404v-108q0-7-5-12t-13-5h-696v-125q0-12-11-17t-19 3l-215 196q-5 5-5 12 0 8 5 14l215 197q9 8 19 4 11-5 11-17v-125h696q8 0 13-5t5-12z" horiz-adv-x="1000" />

<glyph glyph-name="right" unicode="&#xf178;" d="M964 352q0-8-5-14l-215-197q-8-8-19-4-11 5-11 17v125h-696q-8 0-13 5t-5 12v108q0 7 5 12t13 5h696v125q0 12 11 17t19-3l215-195q5-6 5-13z" horiz-adv-x="1000" />
</font>
</defs>
</svg>
